<svg xmlns="http://www.w3.org/2000/svg" width="600" height="600" viewBox="0 0 600 600">
  <path d="M271.773112,513.583116 L229.879191,498.78591 C225.483764,497.281109 223.011335,491.679906 224.24755,486.329504 L317.993782,93.2421256 C319.229996,87.8917231 323.83146,84.8821218 328.226888,86.3869225 L370.120809,101.184129 C374.516236,102.68893 376.988665,108.290132 375.75245,113.640535 L282.006218,506.727913 C280.701325,512.078316 276.16854,515.171517 271.773112,513.583116 L271.773112,513.583116 Z M169.902908,450.164498 C172.836114,442.569631 172.644818,430.479843 169.392786,423.504966 L111.621388,299.972135 L169.392786,176.439304 C172.644818,169.464426 172.899879,157.374639 169.902908,149.779772 L142.164986,77.8610347 C139.295546,70.4211654 134.44938,69.9561735 131.324878,77.0860483 L39.4390242,286.332374 C36.1869919,293.617246 36.1869919,306.172026 39.4390242,313.456898 L131.324878,522.858221 C134.44938,529.988096 139.295546,529.678101 142.164986,522.083235 L169.902908,450.164498 Z M468.675122,522.992723 L560.560976,313.644845 C563.813008,306.361832 563.813008,293.810257 560.560976,286.527244 L468.675122,77.0244093 C465.614386,70.0513119 460.76822,70.3612274 457.835014,77.7991979 L430.097092,149.699579 C427.163886,157.292507 427.355182,169.379209 430.607214,176.352307 L488.378612,300.008566 L430.607214,423.509867 C427.355182,430.482965 427.100121,442.569667 430.097092,450.162595 L457.835014,522.062976 C460.704454,529.655905 465.55062,529.96582 468.675122,522.992723 Z"/>
</svg>
