<svg xmlns="http://www.w3.org/2000/svg" width="600" height="600" viewBox="0 0 600 600">
  <path d="M225.787109,523.96875 C173.896484,445.412109 152.996094,381.990234 152.996094,300.791016 C152.996094,219.351562 173.896484,155.689453 225.787109,77.1328125 L158.28125,77.1328125 C107.351562,133.347656 80.2050781,211.423828 80.2050781,300.791016 C80.2050781,389.917969 107.351562,467.753906 158.28125,523.96875 L225.787109,523.96875 Z M442.71875,523.96875 C493.648438,467.753906 520.794922,389.917969 520.794922,300.791016 C520.794922,211.423828 493.648438,133.347656 442.71875,77.1328125 L375.212891,77.1328125 C427.103516,155.689453 448.003906,219.351562 448.003906,300.791016 C448.003906,381.990234 427.103516,445.412109 375.212891,523.96875 L442.71875,523.96875 Z"/>
</svg>
