<svg xmlns="http://www.w3.org/2000/svg" width="600" height="600" viewBox="0 0 600 600">
  <path d="M501.5625,407 L219.375,407 L219.375,393.5 C219.375,386.075 213.328125,380 205.9375,380 L179.0625,380 C171.671875,380 165.625,386.075 165.625,393.5 L165.625,407 L98.4375,407 C91.046875,407 85,413.075 85,420.5 L85,447.5 C85,454.925 91.046875,461 98.4375,461 L165.625,461 L165.625,474.5 C165.625,481.925 171.671875,488 179.0625,488 L205.9375,488 C213.328125,488 219.375,481.925 219.375,474.5 L219.375,461 L501.5625,461 C508.953125,461 515,454.925 515,447.5 L515,420.5 C515,413.075 508.953125,407 501.5625,407 Z M501.5625,273 L434.375,273 L434.375,259.5 C434.375,252.075 428.328125,246 420.9375,246 L394.0625,246 C386.671875,246 380.625,252.075 380.625,259.5 L380.625,273 L98.4375,273 C91.046875,273 85,279.075 85,286.5 L85,313.5 C85,320.925 91.046875,327 98.4375,327 L380.625,327 L380.625,340.5 C380.625,347.925 386.671875,354 394.0625,354 L420.9375,354 C428.328125,354 434.375,347.925 434.375,340.5 L434.375,327 L501.5625,327 C508.953125,327 515,320.925 515,313.5 L515,286.5 C515,279.075 508.953125,273 501.5625,273 Z M501.5625,139 L326.875,139 L326.875,125.5 C326.875,118.075 320.828125,112 313.4375,112 L286.5625,112 C279.171875,112 273.125,118.075 273.125,125.5 L273.125,139 L98.4375,139 C91.046875,139 85,145.075 85,152.5 L85,179.5 C85,186.925 91.046875,193 98.4375,193 L273.125,193 L273.125,206.5 C273.125,213.925 279.171875,220 286.5625,220 L313.4375,220 C320.828125,220 326.875,213.925 326.875,206.5 L326.875,193 L501.5625,193 C508.953125,193 515,186.925 515,179.5 L515,152.5 C515,145.075 508.953125,139 501.5625,139 Z"/>
</svg>
